<?xml version="1.0" standalone="no"?>
<!DOCTYPE svg PUBLIC "-//W3C//DTD SVG 20010904//EN"
 "http://www.w3.org/TR/2001/REC-SVG-20010904/DTD/svg10.dtd">
<svg version="1.0" xmlns="http://www.w3.org/2000/svg"
 width="640.000000pt" height="640.000000pt" viewBox="0 0 640.000000 640.000000"
 preserveAspectRatio="xMidYMid meet">

<g transform="translate(0.000000,640.000000) scale(0.100000,-0.100000)"
fill="#000000" stroke="none">
<path d="M0 3200 l0 -3200 3200 0 3200 0 0 3200 0 3200 -3200 0 -3200 0 0
-3200z m2390 1907 c215 -3 239 -13 384 -159 120 -122 506 -517 660 -675 l108
-111 -40 -44 c-22 -23 -61 -67 -87 -96 l-48 -52 -195 202 c-451 468 -616 630
-661 650 -35 16 -71 21 -167 24 -70 2 -126 0 -129 -6 -3 -5 -7 -384 -8 -842
l-2 -833 -125 0 -125 0 -3 965 c-1 531 0 970 2 975 2 6 55 9 137 8 74 -2 208
-4 299 -6z m2175 -277 l0 -275 -125 0 -125 0 -5 145 -5 145 -120 0 c-151 0
-187 -8 -235 -51 -46 -42 -49 -56 -51 -239 l-2 -140 -120 -122 c-67 -68 -125
-123 -129 -123 -4 0 -8 128 -8 283 0 249 2 293 20 361 37 144 134 242 280 282
32 9 129 12 335 11 l290 -2 0 -275z m0 -1635 l0 -780 -270 -3 c-163 -1 -290 2
-321 8 -103 22 -174 82 -549 465 -192 196 -352 362 -354 367 -5 15 160 178
180 178 9 0 52 -39 95 -87 43 -49 203 -212 354 -364 231 -231 282 -278 316
-287 23 -7 98 -12 168 -12 l126 0 0 643 c0 354 3 647 7 651 4 3 61 5 127 4
l121 -3 0 -780z m-1685 -57 c0 -348 -6 -403 -54 -496 -30 -58 -74 -105 -147
-159 -93 -69 -124 -74 -445 -71 l-279 3 0 130 0 130 275 5 c261 5 277 6 310
27 69 43 75 63 78 295 l3 208 121 125 c66 69 124 125 129 125 5 0 9 -139 9
-322z m-1164 -1325 c36 -43 87 -105 112 -138 25 -33 57 -73 71 -88 l26 -28 5
163 5 163 61 3 c48 2 63 -1 67 -12 3 -9 5 -138 4 -288 l-2 -273 -52 -3 -51 -3
-84 98 c-46 54 -104 123 -128 153 -25 31 -49 57 -55 58 -12 2 -12 5 -14 -170
l-1 -138 -65 0 -65 0 0 283 c0 156 3 287 7 290 3 4 26 7 49 7 42 0 46 -3 110
-77z m949 52 c51 -25 115 -89 140 -140 28 -56 28 -203 0 -260 -49 -100 -154
-165 -266 -165 -86 0 -146 25 -210 89 -87 87 -108 182 -69 313 19 67 112 154
190 179 44 15 172 5 215 -16z m697 9 c48 -16 128 -77 128 -98 0 -6 -18 -29
-40 -50 l-41 -39 -22 21 c-116 106 -277 36 -277 -120 0 -50 26 -97 73 -132 45
-33 125 -28 181 11 l44 31 41 -35 c23 -19 41 -40 41 -48 0 -20 -67 -74 -119
-97 -60 -26 -176 -21 -237 10 -55 28 -113 88 -138 142 -21 48 -28 144 -13 211
16 78 99 167 182 197 45 16 145 14 197 -4z m700 -8 c50 -24 112 -85 140 -138
33 -62 33 -204 0 -265 -72 -135 -223 -195 -368 -146 -69 23 -155 110 -179 182
-48 147 27 315 166 370 66 26 183 24 241 -3z m663 10 c45 -19 105 -65 105 -80
0 -7 -18 -29 -39 -50 l-39 -38 -36 27 c-49 37 -112 44 -146 17 -20 -17 -23
-24 -14 -39 11 -19 88 -60 167 -89 27 -9 61 -29 77 -44 54 -51 59 -142 10
-208 -69 -93 -275 -96 -379 -5 l-36 32 42 42 41 42 29 -20 c42 -28 80 -43 113
-43 62 0 107 42 80 75 -7 8 -44 24 -84 36 -120 36 -166 67 -192 128 -19 46
-18 85 5 129 23 45 46 66 91 86 45 19 160 20 205 2z m-2580 -872 c22 -23 5
-40 -25 -24 -15 8 -25 9 -32 2 -15 -15 -2 -30 33 -37 66 -15 56 -105 -12 -105
-37 0 -69 16 -69 35 0 21 17 27 38 14 21 -13 52 -6 52 10 0 6 -12 14 -27 17
-61 14 -81 60 -41 88 29 21 62 20 83 0z m316 6 c27 -15 51 -65 43 -95 -10 -42
-49 -75 -88 -75 -30 0 -40 6 -62 39 -20 31 -24 47 -19 70 12 56 77 87 126 61z
m239 -22 c0 -18 3 -50 6 -70 6 -36 8 -38 45 -38 32 0 39 -3 39 -20 0 -18 -7
-20 -60 -20 l-60 0 0 83 c0 46 3 87 7 90 14 15 23 5 23 -25z m278 -28 c4 -72
24 -95 61 -71 9 6 15 30 16 68 1 43 5 58 16 58 24 0 24 -103 -1 -143 -18 -29
-25 -33 -57 -30 -48 4 -63 31 -63 116 0 47 3 63 13 60 7 -3 13 -27 15 -58z
m397 40 c0 -8 -10 -16 -22 -18 -21 -3 -23 -8 -23 -73 0 -62 -2 -70 -17 -67
-15 3 -19 16 -21 71 -2 44 -7 67 -15 67 -21 0 -40 17 -32 29 11 19 130 10 130
-9z m200 -71 c0 -68 -3 -84 -15 -84 -12 0 -16 16 -18 74 -3 82 2 105 21 98 8
-2 12 -29 12 -88z m316 62 c34 -34 37 -69 12 -112 -31 -53 -95 -53 -130 0 -31
45 -29 77 6 112 38 38 74 38 112 0z m234 -19 c17 -22 33 -41 38 -41 4 -1 7 17
7 38 0 42 16 63 30 40 5 -7 8 -47 7 -88 -2 -95 -19 -103 -62 -31 -16 28 -33
50 -37 50 -4 0 -8 -22 -8 -50 0 -38 -4 -50 -15 -50 -12 0 -15 17 -15 91 0 103
6 108 55 41z m351 34 c28 -21 6 -43 -26 -26 -15 8 -25 9 -32 2 -15 -15 -3 -29
29 -35 42 -9 57 -40 38 -77 -12 -24 -22 -30 -48 -30 -42 0 -73 21 -64 45 5 12
13 15 25 10 9 -4 26 -8 37 -9 29 -2 25 28 -5 32 -56 8 -78 58 -38 86 28 20 58
20 84 2z"/>
<path d="M2460 1739 c-55 -32 -72 -63 -78 -139 l-4 -67 43 -45 c138 -142 342
15 253 194 -19 38 -92 78 -140 78 -21 0 -55 -10 -74 -21z"/>
<path d="M3860 1738 c-60 -41 -75 -71 -75 -150 l0 -70 43 -39 c50 -44 92 -55
148 -40 43 12 70 32 97 71 24 35 23 135 -3 174 -47 72 -146 97 -210 54z"/>
<path d="M2386 974 c-32 -31 -10 -94 33 -94 24 0 51 31 51 58 0 21 -34 52 -57
52 -6 0 -19 -7 -27 -16z"/>
<path d="M3808 979 c-25 -14 -24 -75 1 -89 11 -5 24 -10 30 -10 16 0 51 38 51
55 0 18 -35 55 -52 55 -7 0 -21 -5 -30 -11z"/>
</g>
</svg>
